<svg id="mermaidChart10" width="100%" xmlns="http://www.w3.org/2000/svg" height="100%" style="max-width:512px;" viewBox="-112 -10 512 536"><style type="text/css" title="mermaid-svg-internal-css">/*  */
*, *::before, *::after { box-sizing: inherit;}
.actor { stroke: rgb(204, 204, 255); fill: rgb(226, 236, 255);}
text.actor { fill: black; stroke: none; font-size: 12px;}
.actor-line { stroke: grey;}
.messageLine0 { stroke-width: 1.5; stroke: black;}
.messageLine1 { stroke-width: 1.5; stroke: black;}
#arrowhead { fill: black;}
.messageText { fill: black; stroke: none; font-size: 12px;}
.labelBox { stroke: rgb(204, 204, 255); fill: rgb(236, 236, 255);}
.labelText { fill: black; stroke: none;}
.loopText { fill: black; stroke: none;}
.loopLine { stroke-width: 2; stroke: rgb(204, 204, 255);}
.actor { stroke: rgb(204, 204, 255); fill: rgb(236, 236, 255);}
text.actor { fill: black; stroke: none;}
.actor-line { stroke: grey;}
.messageLine0 { stroke-width: 1.5; stroke: rgb(51, 51, 51);}
.messageLine1 { stroke-width: 1.5; stroke: rgb(51, 51, 51);}
#arrowhead { fill: rgb(51, 51, 51);}
#crosshead path { fill: rgb(51, 51, 51) ! important; stroke: rgb(51, 51, 51) ! important;}
.messageText { fill: rgb(51, 51, 51); stroke: none;}
.labelBox { stroke: rgb(204, 204, 255); fill: rgb(236, 236, 255);}
.labelText { fill: black; stroke: none;}
.loopText { fill: black; stroke: none;}
.loopLine { stroke-width: 2; stroke: rgb(204, 204, 255);}
text { font-family: "trebuchet ms",verdana,arial; font-size: 14px;}
/*  */
</style><g></g><g><line id="actor20" x1="75" y1="5" x2="75" y2="525" class="actor-line" stroke-width="0.5px" stroke="#999"></line><rect x="0" y="0" fill="#eaeaea" stroke="#666" width="150" height="65" rx="3" ry="3" class="actor"></rect><text x="75" y="37.5" class="actor" style="text-anchor: middle;">Salford.PdfToTiff</text></g><g><line id="actor21" x1="275" y1="5" x2="275" y2="525" class="actor-line" stroke-width="0.5px" stroke="#999"></line><rect x="200" y="0" fill="#eaeaea" stroke="#666" width="150" height="65" rx="3" ry="3" class="actor"></rect><text x="275" y="37.5" class="actor" style="text-anchor: middle;">Exchange Web Services</text></g><defs><marker id="arrowhead" refX="5" refY="2" markerWidth="6" markerHeight="4" orient="auto"><path d="M 0,0 V 4 L6,2 Z"></path></marker></defs><defs><marker id="crosshead" markerWidth="15" markerHeight="8" orient="auto" refX="16" refY="4"><path fill="black" stroke="#000000" style="stroke-dasharray: 0, 0;" stroke-width="1px" d="M 9,2 V 6 L16,4 Z"></path><path fill="none" stroke="#000000" style="stroke-dasharray: 0, 0;" stroke-width="1px" d="M 0,1 L 6,7 M 6,1 L 0,7"></path></marker></defs><g><text x="175" y="118" style="text-anchor: middle;" class="messageText">Retrieve emails with attachments</text><line x1="75" y1="125" x2="275" y2="125" class="messageLine0" stroke-width="2" stroke="black" style="fill: none;" marker-end="url(#arrowhead)"></line></g><g><text x="175" y="153" style="text-anchor: middle;" class="messageText">Return next 100 not marked with Pdf-Processed</text><line x1="275" y1="160" x2="75" y2="160" style="stroke-dasharray: 3, 3; fill: none;" class="messageLine1" stroke-width="2" stroke="black" marker-end="url(#arrowhead)"></line></g><g><text x="75" y="213" style="text-anchor: middle;" class="messageText">Save PDFs to configured PDF folder</text><path d="M 75,220 C 135,210 135,250 75,240" class="messageLine0" stroke-width="2" stroke="black" style="fill: none;" marker-end="url(#arrowhead)"></path></g><g><text x="75" y="278" style="text-anchor: middle;" class="messageText">Stamp PDF with metadata about the email</text><path d="M 75,285 C 135,275 135,315 75,305" class="messageLine0" stroke-width="2" stroke="black" style="fill: none;" marker-end="url(#arrowhead)"></path></g><g><text x="175" y="343" style="text-anchor: middle;" class="messageText">Mark email as "Pdf-Processed"</text><line x1="75" y1="350" x2="275" y2="350" class="messageLine0" stroke-width="2" stroke="black" style="fill: none;" marker-end="url(#arrowhead)"></line></g><g><text x="175" y="403" style="text-anchor: middle;" class="messageText">Move email to configured folder</text><line x1="75" y1="410" x2="275" y2="410" class="messageLine0" stroke-width="2" stroke="black" style="fill: none;" marker-end="url(#arrowhead)"></line></g><g><line x1="65" y1="360" x2="285" y2="360" stroke-width="2" stroke="#526e52" class="loopLine"></line><line x1="285" y1="360" x2="285" y2="420" stroke-width="2" stroke="#526e52" class="loopLine"></line><line x1="65" y1="420" x2="285" y2="420" stroke-width="2" stroke="#526e52" class="loopLine"></line><line x1="65" y1="360" x2="65" y2="420" stroke-width="2" stroke="#526e52" class="loopLine"></line><rect x="65" y="360" fill="#526e52" stroke="none" width="50" height="20" rx="0" ry="0" class="labelBox"></rect><text x="72.5" y="375" fill="white" class="labelText"><tspan x="72.5">opt</tspan></text><text x="175" y="375" style="text-anchor: middle;" fill="black" class="loopText"><tspan x="175">[ Move to folder ]</tspan></text></g><g><line x1="-52" y1="170" x2="295" y2="170" stroke-width="2" stroke="#526e52" class="loopLine"></line><line x1="295" y1="170" x2="295" y2="430" stroke-width="2" stroke="#526e52" class="loopLine"></line><line x1="-52" y1="430" x2="295" y2="430" stroke-width="2" stroke="#526e52" class="loopLine"></line><line x1="-52" y1="170" x2="-52" y2="430" stroke-width="2" stroke="#526e52" class="loopLine"></line><rect x="-52" y="170" fill="#526e52" stroke="none" width="50" height="20" rx="0" ry="0" class="labelBox"></rect><text x="-44.5" y="185" fill="white" class="labelText"><tspan x="-44.5">loop</tspan></text><text x="121.5" y="185" style="text-anchor: middle;" fill="black" class="loopText"><tspan x="121.5">[ for each email ]</tspan></text></g><g><line x1="-62" y1="75" x2="305" y2="75" stroke-width="2" stroke="#526e52" class="loopLine"></line><line x1="305" y1="75" x2="305" y2="440" stroke-width="2" stroke="#526e52" class="loopLine"></line><line x1="-62" y1="440" x2="305" y2="440" stroke-width="2" stroke="#526e52" class="loopLine"></line><line x1="-62" y1="75" x2="-62" y2="440" stroke-width="2" stroke="#526e52" class="loopLine"></line><rect x="-62" y="75" fill="#526e52" stroke="none" width="50" height="20" rx="0" ry="0" class="labelBox"></rect><text x="-54.5" y="90" fill="white" class="labelText"><tspan x="-54.5">loop</tspan></text><text x="121.5" y="90" style="text-anchor: middle;" fill="black" class="loopText"><tspan x="121.5">[ repeat every minute ]</tspan></text></g><g><rect x="0" y="460" fill="#eaeaea" stroke="#666" width="150" height="65" rx="3" ry="3" class="actor"></rect><text x="75" y="497.5" class="actor" style="text-anchor: middle;">Salford.PdfToTiff</text></g><g><rect x="200" y="460" fill="#eaeaea" stroke="#666" width="150" height="65" rx="3" ry="3" class="actor"></rect><text x="275" y="497.5" class="actor" style="text-anchor: middle;">Exchange Web Services</text></g></svg>