<svg id="mermaidChart9" width="100%" xmlns="http://www.w3.org/2000/svg" height="100%" style="max-width:495px;" viewBox="-95 -10 495 396"><style type="text/css" title="mermaid-svg-internal-css">/*  */
*, *::before, *::after { box-sizing: inherit;}
.actor { stroke: rgb(204, 204, 255); fill: rgb(226, 236, 255);}
text.actor { fill: black; stroke: none; font-size: 12px;}
.actor-line { stroke: grey;}
.messageLine0 { stroke-width: 1.5; stroke: black;}
#arrowhead { fill: black;}
.messageText { fill: black; stroke: none; font-size: 12px;}
.labelBox { stroke: rgb(204, 204, 255); fill: rgb(236, 236, 255);}
.labelText { fill: black; stroke: none;}
.loopText { fill: black; stroke: none;}
.loopLine { stroke-width: 2; stroke: rgb(204, 204, 255);}
.actor { stroke: rgb(204, 204, 255); fill: rgb(236, 236, 255);}
text.actor { fill: black; stroke: none;}
.actor-line { stroke: grey;}
.messageLine0 { stroke-width: 1.5; stroke: rgb(51, 51, 51);}
#arrowhead { fill: rgb(51, 51, 51);}
#crosshead path { fill: rgb(51, 51, 51) ! important; stroke: rgb(51, 51, 51) ! important;}
.messageText { fill: rgb(51, 51, 51); stroke: none;}
.labelBox { stroke: rgb(204, 204, 255); fill: rgb(236, 236, 255);}
.labelText { fill: black; stroke: none;}
.loopText { fill: black; stroke: none;}
.loopLine { stroke-width: 2; stroke: rgb(204, 204, 255);}
text { font-family: "trebuchet ms",verdana,arial; font-size: 14px;}
/*  */
</style><g/><g><line id="actor18" x1="75" y1="5" x2="75" y2="385" class="actor-line" stroke-width="0.5px" stroke="#999"/><rect x="0" y="0" fill="#eaeaea" stroke="#666" width="150" height="65" rx="3" ry="3" class="actor"/><text x="75" y="37.5" class="actor" style="text-anchor: middle;">Salford.PdfToTiff</text></g><g><line id="actor19" x1="275" y1="5" x2="275" y2="385" class="actor-line" stroke-width="0.5px" stroke="#999"/><rect x="200" y="0" fill="#eaeaea" stroke="#666" width="150" height="65" rx="3" ry="3" class="actor"/><text x="275" y="37.5" class="actor" style="text-anchor: middle;">GhostScript</text></g><defs><marker id="arrowhead" refX="5" refY="2" markerWidth="6" markerHeight="4" orient="auto"><path d="M 0,0 V 4 L6,2 Z"/></marker></defs><defs><marker id="crosshead" markerWidth="15" markerHeight="8" orient="auto" refX="16" refY="4"><path fill="black" stroke="#000000" style="stroke-dasharray: 0, 0;" stroke-width="1px" d="M 9,2 V 6 L16,4 Z"/><path fill="none" stroke="#000000" style="stroke-dasharray: 0, 0;" stroke-width="1px" d="M 0,1 L 6,7 M 6,1 L 0,7"/></marker></defs><g><text x="75" y="118" style="text-anchor: middle;" class="messageText">Retrieve PDFs from configured folder</text><path d="M 75,125 C 135,115 135,155 75,145" class="messageLine0" stroke-width="2" stroke="black" style="fill: none;" marker-end="url(#arrowhead)"/></g><g><text x="75" y="208" style="text-anchor: middle;" class="messageText">Stamp PDF with timestamp</text><path d="M 75,215 C 135,205 135,245 75,235" class="messageLine0" stroke-width="2" stroke="black" style="fill: none;" marker-end="url(#arrowhead)"/></g><g><text x="175" y="273" style="text-anchor: middle;" class="messageText">Convert PDF to TIFF and place in configured TIFF folder</text><line x1="75" y1="280" x2="275" y2="280" class="messageLine0" stroke-width="2" stroke="black" style="fill: none;" marker-end="url(#arrowhead)"/></g><g><line x1="-35" y1="165" x2="285" y2="165" stroke-width="2" stroke="#526e52" class="loopLine"/><line x1="285" y1="165" x2="285" y2="290" stroke-width="2" stroke="#526e52" class="loopLine"/><line x1="-35" y1="290" x2="285" y2="290" stroke-width="2" stroke="#526e52" class="loopLine"/><line x1="-35" y1="165" x2="-35" y2="290" stroke-width="2" stroke="#526e52" class="loopLine"/><rect x="-35" y="165" fill="#526e52" stroke="none" width="50" height="20" rx="0" ry="0" class="labelBox"/><text x="-27.5" y="180" fill="white" class="labelText"><tspan x="-27.5">loop</tspan></text><text x="125" y="180" style="text-anchor: middle;" fill="black" class="loopText"><tspan x="125">[ for each PDF file ]</tspan></text></g><g><line x1="-45" y1="75" x2="295" y2="75" stroke-width="2" stroke="#526e52" class="loopLine"/><line x1="295" y1="75" x2="295" y2="300" stroke-width="2" stroke="#526e52" class="loopLine"/><line x1="-45" y1="300" x2="295" y2="300" stroke-width="2" stroke="#526e52" class="loopLine"/><line x1="-45" y1="75" x2="-45" y2="300" stroke-width="2" stroke="#526e52" class="loopLine"/><rect x="-45" y="75" fill="#526e52" stroke="none" width="50" height="20" rx="0" ry="0" class="labelBox"/><text x="-37.5" y="90" fill="white" class="labelText"><tspan x="-37.5">loop</tspan></text><text x="125" y="90" style="text-anchor: middle;" fill="black" class="loopText"><tspan x="125">[ repeat every minute ]</tspan></text></g><g><rect x="0" y="320" fill="#eaeaea" stroke="#666" width="150" height="65" rx="3" ry="3" class="actor"/><text x="75" y="357.5" class="actor" style="text-anchor: middle;">Salford.PdfToTiff</text></g><g><rect x="200" y="320" fill="#eaeaea" stroke="#666" width="150" height="65" rx="3" ry="3" class="actor"/><text x="275" y="357.5" class="actor" style="text-anchor: middle;">GhostScript</text></g></svg>